HIERARCHY
ROOT Hips
{
	OFFSET 0.0000 0.0000 0.0000
	CHANNELS 6 Xposition Yposition Zposition Zrotation Xrotation Yrotation
	JOINT Ab
	{
		OFFSET -0.0000 8.0846 -0.0000
		CHANNELS 3 Zrotation Xrotation Yrotation
		JOINT Chest
		{
			OFFSET -0.0000 25.7002 -0.0000
			CHANNELS 3 Zrotation Xrotation Yrotation
			JOINT Neck
			{
				OFFSET -0.0000 25.7002 0.0000
				CHANNELS 3 Zrotation Xrotation Yrotation
				JOINT Head
				{
					OFFSET -0.0000 10.7556 0.0000
					CHANNELS 3 Zrotation Xrotation Yrotation
					End Site
					{
						OFFSET -0.0000 16.6222 0.0000
					}
				}
			}
			JOINT LeftCollar
			{
				OFFSET -0.0000 25.7002 0.0000
				CHANNELS 3 Zrotation Xrotation Yrotation
				JOINT LeftShoulder
				{
					OFFSET 19.5556 -0.0000 0.0000
					CHANNELS 3 Zrotation Xrotation Yrotation
					JOINT LeftElbow
					{
						OFFSET 27.2833 0.0000 0.0000
						CHANNELS 3 Zrotation Xrotation Yrotation
						JOINT LeftWrist
						{
							OFFSET 23.7914 0.0000 0.0000
							CHANNELS 3 Zrotation Xrotation Yrotation
							End Site
							{
								OFFSET 0.0000 -14.6667 0.0000
							}
						}
					}
				}
			}
			JOINT RightCollar
			{
				OFFSET -0.0000 25.7002 0.0000
				CHANNELS 3 Zrotation Xrotation Yrotation
				JOINT RightShoulder
				{
					OFFSET -19.5556 0.0000 0.0000
					CHANNELS 3 Zrotation Xrotation Yrotation
					JOINT RightElbow
					{
						OFFSET -27.2833 0.0000 0.0000
						CHANNELS 3 Zrotation Xrotation Yrotation
						JOINT RightWrist
						{
							OFFSET -23.7914 0.0000 0.0000
							CHANNELS 3 Zrotation Xrotation Yrotation
							End Site
							{
								OFFSET -0.0000 -14.6667 0.0000
							}
						}
					}
				}
			}
		}
	}
	JOINT LeftHip
	{
		OFFSET 11.7333 0.0000 0.0000
		CHANNELS 3 Zrotation Xrotation Yrotation
		JOINT LeftKnee
		{
			OFFSET -0.0000 -39.5330 0.0000
			CHANNELS 3 Zrotation Xrotation Yrotation
			JOINT LeftAnkle
			{
				OFFSET -0.0000 -43.0504 0.0000
				CHANNELS 3 Zrotation Xrotation Yrotation
				End Site
				{
					OFFSET -0.0000 -4.8889 16.6222
				}
			}
		}
	}
	JOINT RightHip
	{
		OFFSET -11.7333 0.0000 0.0000
		CHANNELS 3 Zrotation Xrotation Yrotation
		JOINT RightKnee
		{
			OFFSET -0.0000 -39.5330 0.0000
			CHANNELS 3 Zrotation Xrotation Yrotation
			JOINT RightAnkle
			{
				OFFSET -0.0000 -43.0504 0.0000
				CHANNELS 3 Zrotation Xrotation Yrotation
				End Site
				{
					OFFSET -0.0000 -4.8889 16.6222
				}
			}
		}
	}
}
MOTION
Frames: 11
Frame Time: 0.010000
-5.6508 92.4094 185.4419 2.4954 358.1121 172.0212 4.5205 1.1211 358.5129 355.0564 11.3144 359.0478 4.0995 343.0973 3.2552 359.2596 6.3424 2.6875 339.9906 357.1560 16.0221 304.4770 43.6010 347.8296 23.8797 353.4533 329.8369 82.9608 358.3805 345.7903 24.6283 358.9089 355.0000 51.2321 50.6824 16.4777 336.5944 353.1729 32.1379 274.0012 348.3820 23.9065 3.3587 359.5300 358.0677 359.0238 10.9286 356.4716 355.2017 345.9460 29.4520 0.7361 352.3754 0.3770 358.8520 19.4931 4.3393 0.9829 345.7743 342.2348 
-5.6734 92.4070 185.4122 2.4912 358.1258 171.9988 4.5390 1.2029 358.5164 355.0186 11.3035 359.0562 5.3457 343.4659 3.9748 357.6011 5.7340 3.3435 339.9967 357.1414 16.0869 304.4935 43.6171 347.8022 23.8957 353.4742 329.9095 83.1668 358.2547 345.8936 24.6291 358.8997 355.0386 51.0929 50.7597 16.6183 336.5920 353.1455 32.3147 273.8300 348.3536 23.6229 3.3391 359.5383 358.1737 359.0305 10.9846 356.3598 355.2139 345.8733 29.4880 0.7160 352.3968 0.4194 358.8589 19.5084 4.3437 0.6616 345.7887 342.1464 
-5.6999 92.4048 185.3881 2.4749 358.0928 171.9857 4.5255 1.2457 358.5330 355.0112 11.2899 359.0759 5.3497 343.4464 3.9727 357.4833 5.7032 3.3218 339.9944 357.1375 16.1148 304.4944 43.5904 347.8151 23.9445 353.4716 329.9354 82.9524 358.1875 345.7961 24.6240 358.9205 355.0253 50.8143 50.9265 16.9331 336.6020 353.1126 32.4503 273.8418 348.3438 23.6744 3.3261 359.4548 358.0857 358.9830 11.1208 356.3982 355.2995 345.7918 29.5448 0.6841 352.3621 0.4448 358.8664 19.5404 4.3755 0.6504 345.7719 342.1009 
-5.7249 92.4020 185.3501 2.4629 358.0633 171.9740 4.4990 1.2891 358.5686 355.0220 11.3130 359.1126 5.3246 343.3661 3.9539 357.4972 5.7450 3.3023 339.9964 357.1415 16.1151 304.4932 43.5752 347.8478 23.9516 353.4549 329.9163 82.9785 358.1351 345.8453 24.6085 358.8921 354.9750 50.4764 51.1331 17.3568 336.5567 353.0422 32.5993 273.6144 348.5163 23.4295 3.3113 359.4123 358.0423 358.9456 11.1980 356.4050 355.3861 345.7380 29.5889 0.6629 352.3318 0.4810 358.8631 19.5987 4.4245 0.7243 345.6956 342.0497 
-5.7496 92.4015 185.3312 2.4573 358.0349 171.9584 4.4931 1.3175 358.5823 355.0194 11.3059 359.1270 5.0380 343.2885 3.7747 357.8565 5.8740 3.1403 340.0024 357.1478 16.0849 304.4648 43.5276 347.9004 23.9364 353.4847 329.9216 83.0033 358.0235 345.7855 24.6076 358.9169 354.9624 50.3286 51.2011 17.5432 336.5486 353.0062 32.7316 273.6956 348.4815 23.4166 3.2973 359.3750 358.0354 358.9287 11.2504 356.3955 355.4110 345.6890 29.6349 0.6439 352.3119 0.4975 358.8678 19.5973 4.4185 0.7263 345.6827 342.0543 
-5.7768 92.3989 185.2978 2.4544 358.0164 171.9431 4.4593 1.3216 358.5174 355.1575 11.3415 359.0509 4.1652 343.2083 3.4244 358.8526 6.0765 2.8666 339.9526 357.1377 16.0625 304.3094 43.3462 348.0354 23.9034 353.5127 329.9249 83.0466 357.9201 345.6694 24.5323 358.9264 355.0566 49.9827 51.3636 17.8900 336.4948 352.9965 32.7838 273.6542 348.4382 23.2585 3.2845 359.3572 358.0222 358.9085 11.2922 356.3883 355.4050 345.6142 29.6800 0.6279 352.3048 0.5246 358.8653 19.6217 4.4371 0.7455 345.6400 342.0292 
-5.8030 92.3974 185.2614 2.4507 357.9863 171.9302 4.4243 1.3343 358.5158 355.2318 11.3826 359.0440 4.9514 343.4293 3.9594 357.7647 5.6844 3.3705 339.9327 357.1280 16.1721 304.3507 43.4680 347.9401 24.0117 353.4719 329.9735 82.9112 357.9524 345.9205 24.5024 358.9520 355.1273 49.6812 51.4666 18.2065 336.5296 352.9795 32.9590 273.4445 348.4214 23.2584 3.2711 359.3406 358.0229 358.8943 11.3223 356.3620 355.4328 345.5604 29.7184 0.6135 352.2848 0.5492 358.8641 19.6348 4.4190 0.7548 345.6127 342.0356 
-5.8303 92.3958 185.2249 2.4469 357.9445 171.9139 4.3618 1.4352 358.5896 355.2984 11.2684 359.1107 5.0040 343.4311 3.9554 357.5922 5.6851 3.3474 339.9447 357.1042 16.2652 304.4171 43.7067 347.8775 24.1023 353.4668 330.1153 82.8851 357.8477 346.0726 24.4731 358.9384 355.0718 49.5472 51.6988 18.4237 336.3915 352.8995 32.9647 273.1886 347.9671 23.4911 3.2566 359.3129 358.0215 358.8794 11.3572 356.3319 355.5124 345.4415 29.4215 0.5957 352.2555 0.5655 358.8647 19.6458 4.4238 0.7094 345.5963 342.0285 
-5.8590 92.3944 185.1798 2.4520 357.9105 171.8846 4.3469 1.5307 358.6353 355.3227 11.1624 359.1521 4.9856 343.4702 3.9107 357.5999 5.6669 3.3048 339.9410 357.0964 16.2150 304.2985 43.6122 348.0605 24.0447 353.4980 330.0870 82.8936 357.8060 345.9787 24.4793 358.9299 354.9921 49.3046 51.8828 18.7203 336.3036 352.8495 33.0867 273.4729 347.8679 23.8460 3.2470 359.3054 357.9938 358.8573 11.3720 356.3509 355.5714 345.3222 29.1365 0.5877 352.2522 0.5962 358.8639 19.6454 4.4104 0.7165 345.5679 342.0469 
-5.8893 92.3938 185.1301 2.4531 357.8760 171.8558 4.3361 1.5464 358.6638 355.3554 11.2242 359.1801 4.9219 343.3915 3.8926 357.6574 5.6751 3.2926 339.9601 357.1117 16.1955 304.2177 43.5690 348.1073 24.0490 353.4810 330.0332 82.8463 357.8088 345.9565 24.4183 358.9199 354.9542 48.9842 52.0457 19.1438 336.1500 352.7725 33.2571 273.6419 347.9724 23.8537 3.2341 359.3080 357.9640 358.8388 11.3799 356.3751 355.5647 345.3690 29.6213 0.5734 352.2486 0.6203 358.8591 19.6366 4.4278 0.7757 345.5389 342.0418 
-5.9219 92.3928 185.0779 2.4494 357.8305 171.8257 4.3186 1.5539 358.6998 355.3929 11.2860 359.2152 4.8878 343.2936 3.8949 357.6593 5.7128 3.2967 339.9850 357.1097 16.2296 304.1597 43.6253 348.0860 24.1727 353.4210 330.0065 82.7799 357.7743 346.0179 24.3814 358.9089 354.9175 48.6799 52.1927 19.5304 336.0662 352.7267 33.4108 273.7105 347.9951 23.9000 3.2123 359.2929 357.9324 358.8220 11.4007 356.3994 355.5776 345.3607 29.8653 0.5535 352.2390 0.6296 358.8500 19.6259 4.4476 0.7906 345.5136 342.0457 
